<svg width="306" height="71" viewBox="0 0 306 71" xmlns="http://www.w3.org/2000/svg">
<path d="M57.4135 58.2712V34.9827H0.0984793V23.2885H57.4135V11.6942H0V0H68.9356V69.9655H0V58.2712H57.4135Z" />
<path d="M73.6649 0H158.456L145.555 46.577H121.821V69.9655H110.299V46.577H86.5657L73.6649 0ZM121.821 11.6942V34.9827H137.086L143.29 11.6942H121.821ZM88.8307 11.6942L95.0349 34.9827H110.299V11.6942H88.8307Z"/>
<path d="M174.727 0V52.5741L220.618 0H232.141V69.9655H220.618V17.8912L174.727 69.9655H163.205V0H174.727Z" />
<path d="M237.064 70.0654V0H306V46.677H248.587V70.0654H237.064ZM294.576 34.9827V11.6942H248.587V34.9827H294.576Z" />
</svg>
