<svg width="60" height="60" viewBox="0 0 60 60" fill="none" xmlns="http://www.w3.org/2000/svg">
<rect width="60" height="60" fill="#111111"/>
<path d="M39.2973 32.4109C39.2973 32.4109 45.5637 32.6038 46.0478 32.8006C46.532 33.0013 46.6973 33.4579 46.6973 33.4579C46.6973 33.4579 49.4093 33.8318 49.4014 34.0129C49.3975 34.194 47.6105 35.5401 46.5162 35.7212C45.422 35.9023 44.6269 35.7921 44.6269 35.7921C44.6269 35.7921 45.5558 35.9849 45.5322 36.0479C45.5086 36.1109 46.2407 36.3313 41.7102 35.8905C37.1796 35.4496 31.5667 35.4496 31.5667 35.4496L39.2973 32.4109Z" fill="white"/>
<path d="M49.4015 34.0129C49.4015 34.0129 48.7362 34.7844 46.7091 34.8395C44.682 34.8946 43.5562 34.934 43.5562 34.934L37.3607 35.5953C37.3607 35.5953 45.5361 36.2054 45.5479 36.1621C45.5598 36.1149 45.5558 36.0401 45.481 36.0125C45.4023 35.985 44.6505 35.796 44.6505 35.796C44.6505 35.796 45.4141 35.8747 46.5477 35.7685C47.6813 35.6622 48.8858 34.6624 49.4015 34.0129Z" fill="white"/>
<path d="M22.5724 40.5981C23.6194 40.7123 24.4972 39.9644 24.8475 38.9646C25.1978 37.9648 25.2018 35.9456 25.2018 35.9456L25.9221 36.3156C25.9221 36.3156 25.5206 38.7206 25.4852 39.5275C25.4497 40.3344 25.6229 40.4761 26.2567 40.3698C26.8904 40.2635 27.8036 40.3856 27.839 41.0547H19.514C19.514 41.0547 19.2857 40.2635 20.3406 40.1415C21.3955 40.0195 21.4467 40.4761 22.5724 40.5981Z" fill="white"/>
<path d="M22.3246 33.1431C22.3246 33.1431 24.5564 36.2684 25.4145 36.4416C26.2765 36.6187 29.0476 34.7923 29.0476 34.7923L22.3246 33.1431Z" fill="white"/>
<path d="M25.5915 40.5981C26.6386 40.7123 27.5163 39.9644 27.8666 38.9646C28.217 37.9648 28.2209 35.9456 28.2209 35.9456L28.9412 36.3156C28.9412 36.3156 28.5397 38.7206 28.5043 39.5275C28.4689 40.3344 28.6421 40.4761 29.2758 40.3698C29.9095 40.2635 30.8227 40.3856 30.8581 41.0547H22.5371C22.5371 41.0547 22.3088 40.2635 23.3637 40.1415C24.4146 40.0195 24.4658 40.4761 25.5915 40.5981Z" fill="white"/>
<path d="M25.3436 33.6545C25.3436 33.6545 27.5754 36.7799 28.4335 36.953C29.2955 37.1302 32.0666 35.3038 32.0666 35.3038L25.3436 33.6545Z" fill="white"/>
<path d="M15.7904 10.2778C15.7904 10.2778 16.2942 10.7934 16.8807 11.309C17.4672 11.8247 18.0813 12.9701 17.8687 14.3517C17.6561 15.7333 16.6524 18.2603 16.0699 22.0784C15.4834 25.8965 16.5147 28.4235 17.6404 29.9232C18.7661 31.4228 27.7564 18.8035 27.7564 18.8035C27.7564 18.8035 25.8827 17.6345 25.3907 15.2452C24.8987 12.856 24.4657 6.51085 20.8366 5.62128C17.2074 4.72777 15.7904 7.39649 15.7904 7.88851C15.7904 8.38053 15.7904 10.2778 15.7904 10.2778Z" fill="white"/>
<path d="M15.8377 8.78989C15.8377 8.78989 16.7785 7.08946 19.1441 7.39255C21.5098 7.69563 22.419 10.5454 22.3245 12.9544C22.2301 15.3672 20.8682 18.5791 20.8682 18.5791H27.4494C27.4494 18.5791 25.8356 17.6856 25.2452 14.4422C24.6548 11.1988 24.4304 8.89616 22.8126 6.89265C21.1988 4.88915 18.1994 5.22766 17.0304 6.19595C15.8614 7.16425 15.8259 7.88851 15.8259 7.88851L15.8377 8.78989Z" fill="white"/>
<path d="M17.0894 29.0729C17.0894 29.0729 17.9554 32.029 23.4148 34.2254C28.8743 36.4218 43.5208 35.1386 44.4851 34.9969C45.4495 34.8552 46.0478 34.4537 46.0478 34.1348C46.0478 34.1348 41.4818 33.2217 38.6006 32.1668C35.7193 31.1119 26.1819 20.9487 26.1819 20.9487C26.1819 20.9487 21.5176 17.2211 19.3724 20.9487C16.865 25.31 17.0894 29.0729 17.0894 29.0729Z" fill="white"/>
<path d="M21.4585 18.1933C17.9672 20.1535 18.6953 27.4197 24.8751 31.4228C31.0549 35.4259 40.6788 32.1234 41.3834 31.6786C41.3834 31.6786 40.2577 29.0099 34.3141 23.8338C28.3704 18.6578 25.0405 16.178 21.4585 18.1933Z" fill="white"/>
<path d="M23.9383 17.4927C23.9383 17.4927 21.4113 18.5751 22.4268 22.405C23.4423 26.2349 34.4833 32.1667 41.3795 31.6786C41.3795 31.6786 40.4151 28.939 34.0228 23.5898C27.6304 18.2405 26.0914 17.5438 23.9383 17.4927Z" fill="white"/>
<path d="M18.2899 23.2749C18.2899 23.2749 16.8808 29.0099 23.7297 32.6272C30.5786 36.2446 45.2605 34.8039 45.2605 34.8039C45.2605 34.8039 34.4951 36.7956 26.5559 35.2094C18.6166 33.6231 17.0894 29.6751 17.0894 29.0729C17.0894 28.9745 17.0185 28.3368 17.2783 26.5695C17.5342 24.8021 18.2899 23.2749 18.2899 23.2749Z" fill="white"/>
<path d="M15.8259 10.2778C15.8259 10.2778 17.4201 10.7659 18.0735 11.0021C18.7308 11.2343 19.9904 12.1869 19.3685 14.4699C17.6011 20.9803 18.4159 22.0548 18.2073 23.0664C17.7743 25.1408 17.0737 25.3652 17.0894 29.073C17.0894 29.073 15.0702 26.0737 16.3573 20.4843C17.6405 14.891 17.9711 14.9579 17.9121 13.533C17.8531 12.1042 17.0658 11.38 16.684 11.1162C16.3022 10.8525 15.881 10.4786 15.8259 10.2778Z" fill="white"/>
<path d="M13.9091 9.84079C13.9091 9.84079 15.21 8.04747 15.8477 7.74438C15.8477 7.74438 16.3377 9.38814 16.1172 10.6595C16.1172 10.6556 14.6805 10.4548 13.9091 9.84079Z" fill="white"/>
<path d="M16.1605 9.91561C16.1605 9.91561 15.1135 10.1085 13.9091 9.84082C13.9091 9.84082 14.6333 10.4273 16.1172 10.6595C16.1172 10.6556 16.1802 10.3879 16.1605 9.91561Z" fill="white"/>
<path d="M17.6327 8.56133C17.6248 8.45505 18.0814 7.43558 18.8686 7.36079C19.6559 7.28601 20.266 8.06143 20.266 8.06143C20.266 8.06143 19.9156 9.53356 18.9316 9.46664C17.9515 9.40367 17.6327 8.56133 17.6327 8.56133Z" fill="white"/>
<path d="M19.6473 9.12145C20.0408 8.72794 20.0408 8.08993 19.6473 7.69642C19.2538 7.30291 18.6158 7.30291 18.2223 7.69642C17.8288 8.08993 17.8288 8.72794 18.2223 9.12145C18.6158 9.51496 19.2538 9.51496 19.6473 9.12145Z" fill="white"/>
<path d="M19.7608 8.60302C19.8682 8.1437 19.5829 7.6843 19.1236 7.57693C18.6642 7.46957 18.2048 7.75489 18.0975 8.21421C17.9901 8.67354 18.2754 9.13294 18.7348 9.2403C19.1941 9.34767 19.6535 9.06235 19.7608 8.60302Z" fill="#111111"/>
<path d="M18.908 9.14004C19.295 9.14004 19.6087 8.82636 19.6087 8.43941C19.6087 8.05246 19.295 7.73877 18.908 7.73877C18.5211 7.73877 18.2074 8.05246 18.2074 8.43941C18.2074 8.82636 18.5211 9.14004 18.908 9.14004Z" fill="#111111"/>
<path d="M18.9354 8.92361C19.2202 8.92361 19.4511 8.69275 19.4511 8.40797C19.4511 8.12319 19.2202 7.89233 18.9354 7.89233C18.6507 7.89233 18.4198 8.12319 18.4198 8.40797C18.4198 8.69275 18.6507 8.92361 18.9354 8.92361Z" fill="#111111"/>
<path d="M19.0253 8.31704C19.0785 8.10628 18.9508 7.89227 18.7401 7.83903C18.5293 7.7858 18.3153 7.91349 18.262 8.12425C18.2088 8.33501 18.3365 8.54902 18.5473 8.60226C18.758 8.65549 18.972 8.5278 19.0253 8.31704Z" fill="white"/>
<path d="M19.5377 20.6929C19.5377 20.6929 18.3883 27.0025 24.0958 30.8206C29.8032 34.6387 35.054 33.4106 39.2972 32.4108L41.3834 33.0328C41.3834 33.0328 34.4951 35.1662 28.4649 33.4264C22.0214 31.5646 17.7585 26.912 19.5377 20.6929Z" fill="white"/>
<path d="M17.0895 29.073C17.0895 29.073 17.1171 30.0492 18.9316 31.852C20.7501 33.6547 23.7141 34.627 26.556 35.2095L26.2726 34.8867C26.2726 34.8867 23.0213 34.0365 20.762 32.7219C18.5026 31.4072 17.1131 29.1911 17.0856 28.2346C17.0895 28.2346 17.1013 28.7384 17.0895 29.073Z" fill="white"/>
<path d="M31.3264 35.7644C31.3264 35.7644 34.0621 35.9533 38.569 35.6266C43.0759 35.2999 45.0125 35.0086 45.2604 34.804C45.2604 34.804 40.6473 35.3471 37.0535 35.4574C33.4598 35.5676 31.8893 35.4259 31.8893 35.4259L31.3264 35.7644Z" fill="white"/>
<path d="M20.6084 18.6934C20.6084 18.6934 18.2507 22.6217 22.6986 27.7032C27.1464 32.7848 33.3223 32.7415 33.3223 32.7415C33.3223 32.7415 30.8189 33.265 28.6264 32.7415C26.434 32.218 24.584 31.419 22.6946 29.7146C20.8053 28.0063 19.2032 24.633 19.3646 22.3343C19.5299 20.0356 20.4274 18.8902 20.6084 18.6934Z" fill="white"/>
<path d="M23.7493 28.7504C24.7294 28.8134 26.0166 28.8291 27.5399 28.6796C28.1342 28.6205 28.6853 28.5221 29.1891 28.3922C28.6932 28.1246 28.2681 27.8845 27.9492 27.6995C26.5991 27.975 24.8948 28.0458 22.7771 27.7861C23.0487 28.0773 23.3715 28.404 23.7493 28.7504Z" fill="white"/>
<path d="M21.6395 28.4786C21.6395 28.4786 22.4031 28.6636 23.7493 28.7502C23.3714 28.4039 23.0487 28.0772 22.7771 27.7859C22.1984 27.715 21.5923 27.6206 20.9507 27.4985L21.6395 28.4786Z" fill="white"/>
<path d="M33.3339 22.9878L32.6608 22.4131C32.6608 22.4131 32.9088 24.2591 31.5705 25.8218C30.8895 26.6169 29.7283 27.3333 27.9531 27.6954C28.272 27.8804 28.6931 28.1205 29.193 28.3882C32.3577 27.5537 33.7393 25.3101 33.3339 22.9878Z" fill="white"/>
<path d="M32.6489 30.0374C32.1411 29.8328 31.6412 29.6123 31.161 29.384C29.6456 30.0807 27.8034 30.5137 26.04 30.494C26.6187 30.8562 27.2524 31.2065 27.9491 31.5174C29.4448 31.3679 31.1925 30.9388 32.6489 30.0374Z" fill="white"/>
<path d="M24.6585 31.2773C25.06 31.5253 26.3668 31.6788 27.9452 31.5214C27.2525 31.2104 26.6148 30.864 26.0362 30.498C24.9419 30.4861 23.8752 30.3011 22.9305 29.8997C22.9345 29.8997 23.7847 30.742 24.6585 31.2773Z" fill="white"/>
<path d="M33.633 29.3134C36.5812 26.7155 35.5657 24.9521 35.5657 24.9521L34.7903 24.2515C34.7903 24.2515 35.4161 26.314 33.0741 28.2231C32.5388 28.656 31.8893 29.0536 31.1611 29.3842C31.6413 29.6086 32.1412 29.8329 32.649 30.0376C32.9954 29.8251 33.326 29.585 33.633 29.3134Z" fill="white"/>
<path d="M41.1825 31.2538C41.1746 31.2341 41.1628 31.2184 41.151 31.1987C41.151 31.1987 39.3049 31.5451 36.3135 31.0767C35.3215 31.8718 33.4873 32.4504 31.3539 32.5763C31.9364 32.6826 32.5465 32.7574 33.1842 32.7928C36.955 32.9975 39.5411 32.1512 41.1825 31.2538Z" fill="white"/>
<path d="M25.9023 31.8756C25.9023 31.8756 28.9726 33.6744 33.5857 33.3792C38.1989 33.084 41.0094 31.911 41.3833 31.6788C41.3833 31.6788 41.3282 31.5292 41.1825 31.2537C39.5372 32.155 36.9551 33.0013 33.1882 32.7888C32.5505 32.7533 31.9444 32.6786 31.3579 32.5723C29.6378 32.6746 27.7248 32.4857 25.9023 31.8756Z" fill="white"/>
<path d="M36.3175 31.0765C39.3051 31.5449 41.1551 31.1986 41.1551 31.1986C40.9425 30.7971 40.5607 30.1673 39.9191 29.3643C38.7855 27.9355 36.66 25.9831 36.4946 25.8257C36.4946 25.8257 37.6755 28.1008 37.0418 30.1161C36.9394 30.4546 36.6875 30.7813 36.3175 31.0765Z" fill="white"/>
<path d="M15.0111 8.8606C15.0111 8.8606 14.649 9.11251 14.031 9.77379C14.031 9.77379 15.2709 9.80921 15.4165 9.71868C15.5622 9.62815 15.0111 8.8606 15.0111 8.8606Z" fill="white"/>
<g clip-path="url(#clip0_419_1106)">
<path d="M21.0074 10.7412C21.6286 10.8267 22.2022 10.3867 22.2887 9.75837C22.3752 9.13004 21.9418 8.55136 21.3207 8.46586C20.6996 8.38035 20.1259 8.8204 20.0394 9.44873C19.9529 10.0771 20.3863 10.6557 21.0074 10.7412Z" fill="#111111"/>
<path d="M20.9664 11.0391C21.5729 11.1226 22.1346 10.6809 22.2211 10.0526C22.3076 9.42425 21.8861 8.84721 21.2796 8.76372C20.6732 8.68023 20.1114 9.12191 20.0249 9.75024C19.9384 10.3786 20.3599 10.9556 20.9664 11.0391Z" fill="#111111"/>
<path d="M21.8301 7.5187C21.8777 7.06495 22.0602 6.13163 22.1664 5.61964C22.1804 5.55225 22.1342 5.4874 22.066 5.47842L21.3973 5.39036C21.3306 5.38159 21.2701 5.42995 21.2641 5.49689C21.2235 5.94992 21.1501 6.73134 21.1119 7.00745C21.0594 7.38632 21.0652 7.46209 20.937 8.12656C20.8088 8.79103 20.8845 8.67446 20.3833 9.43219C19.882 10.1899 20.3716 10.6212 20.7738 10.7553C21.071 10.8544 21.4149 10.8544 21.718 10.6912C22.0211 10.528 22.1785 10.0967 21.9162 9.49047C21.6539 8.88429 21.7006 8.73114 21.7481 8.36007C21.7956 7.989 21.7654 8.1357 21.8301 7.5187Z" fill="#111111" stroke="white" stroke-width="0.118085"/>
</g>
<path d="M17.353 48.1523V45.0848H9.69083V43.5444H17.353V42.0172H9.67766V40.4769H18.8934V49.6926H9.67766V48.1523H17.353ZM19.5256 40.4769H30.861L29.1363 46.6119H25.9635V49.6926H24.4231V46.6119H21.2503L19.5256 40.4769ZM25.9635 42.0172V45.0848H28.0041L28.8335 42.0172H25.9635ZM21.5531 42.0172L22.3825 45.0848H24.4231V42.0172H21.5531ZM33.0362 40.4769V47.4019L39.1713 40.4769H40.7116V49.6926H39.1713V42.8335L33.0362 49.6926H31.4959V40.4769H33.0362ZM41.3699 49.7058V40.4769H50.5856V46.6251H42.9102V49.7058H41.3699ZM49.0584 45.0848V42.0172H42.9102V45.0848H49.0584Z" fill="white"/>
<defs>
<clipPath id="clip0_419_1106">
<rect width="6.37659" height="6.37659" fill="white" transform="translate(18.6282 4.64502) rotate(7.83824)"/>
</clipPath>
</defs>
</svg>
